<svg width="30" height="30" viewBox="0 0 30 30" fill="none" xmlns="http://www.w3.org/2000/svg">
<g clip-path="url(#clip0_1469_195)">
<path d="M15 30C23.2843 30 30 23.2843 30 15C30 6.71573 23.2843 0 15 0C6.71573 0 0 6.71573 0 15C0 23.2843 6.71573 30 15 30Z" fill="#007CC5"/>
<path d="M7.5 10.5435V19.4567H16.6061L25.5176 10.5435H7.5ZM9.9498 12.2011H9.95391C10.6017 12.2011 11.3912 12.3854 11.9625 12.6763L11.3473 13.7497C10.7203 13.4474 10.4054 13.4181 10.0488 13.3993C9.51738 13.37 9.2502 13.5607 9.24609 13.7655C9.24082 14.0151 9.74795 14.241 10.2261 14.3945C10.9497 14.6245 11.8696 14.9315 12.0103 15.8213L13.333 12.3244H14.8696L16.4188 16.5112L16.413 12.3259H18.1934C19.8879 12.3259 20.6836 12.8995 20.6836 14.2164C20.6836 15.3988 19.8633 16.1037 18.479 16.1037H17.906L17.9004 17.6767L15.2051 17.674L15.0182 16.9923C14.7193 17.0879 14.4073 17.1356 14.0936 17.1338C13.7719 17.1358 13.452 17.0852 13.1467 16.9838L12.8774 17.6734L11.376 17.6781L11.4434 17.3313C11.422 17.35 11.4015 17.369 11.3783 17.3872C10.977 17.7095 10.4719 17.8592 9.84961 17.8703H9.68906C8.97393 17.8703 8.34463 17.701 7.75166 17.3641L8.2998 16.2766C8.89336 16.6281 9.2666 16.7066 9.76787 16.6958C10.0283 16.6905 10.2167 16.6431 10.3397 16.5162C10.4117 16.4416 10.4535 16.343 10.4569 16.2394C10.4619 15.9569 10.0597 15.8242 9.56748 15.6719C9.16846 15.5482 8.71553 15.3789 8.36133 15.1202C7.94209 14.8117 7.74258 14.4262 7.75254 13.8818C7.75482 13.4951 7.90699 13.1242 8.17705 12.8474C8.56699 12.4442 9.19541 12.1993 9.95068 12.1993L9.9498 12.2011ZM17.9054 13.455V14.8847H18.2965C18.8174 14.8847 19.234 14.7112 19.234 14.1604C19.234 13.6284 18.8183 13.4547 18.2965 13.4547L17.9054 13.455ZM14.0874 14.0307L13.5258 15.8043C13.7075 15.8713 13.8999 15.905 14.0936 15.9036C14.2831 15.9041 14.4714 15.8722 14.6502 15.8093L14.0974 14.0307H14.0874Z" fill="white"/>
</g>
<defs>
<clipPath id="clip0_1469_195">
<rect width="30" height="30" fill="white"/>
</clipPath>
</defs>
</svg>
