<svg xmlns="http://www.w3.org/2000/svg" width="139.538" height="112.824" viewBox="0 0 139.538 112.824">
  <g id="download" transform="translate(13.979)">
    <path id="Path_946" data-name="Path 946" d="M93.006,597.3h1.981l.942-7.641H93.006Z" transform="translate(-94.117 -486.672)" fill="#fdf0ff"/>
    <path id="Path_947" data-name="Path 947" d="M260.04,756.7h3.9a2.486,2.486,0,0,1,2.486,2.486v.081H260.04Z" transform="translate(-261.656 -646.722)" fill="#b212ca"/>
    <path id="Path_948" data-name="Path 948" d="M220.644,594.668l1.923-.473-.91-7.644-2.839.7Z" transform="translate(-197.956 -484.109)" fill="#fdf0ff"/>
    <path id="Path_949" data-name="Path 949" d="M395.5,752.377l3.788-.932h0a2.486,2.486,0,0,1,3.008,1.82l.019.078-6.2,1.526Z" transform="translate(-373.461 -642.326)" fill="#b212ca"/>
    <path id="Path_950" data-name="Path 950" d="M255.958,567.939l.412-2.105a38.835,38.835,0,0,1,6.193-16.242l1.769-8.813s-.526-6.671,4.546-10.282l1.564-1.077,5.482.314,1.266,6.932,2.551,16.4s.658.062.905,1.958a5.705,5.705,0,0,1,.864,2.644,37.177,37.177,0,0,1,1.655,6.254l-.041,2.595-2.757,1.469-5.746-16.251-4.11-9.085a72.839,72.839,0,0,1-5.008,11.885s-4.15,8.982-4.979,10.807l-.905,2.987Z" transform="translate(-258.287 -459.137)" fill="#461aa3"/>
    <circle id="Ellipse_214" data-name="Ellipse 214" cx="3.919" cy="3.919" r="3.919" transform="translate(12.082 48.496)" fill="#ffb7b7"/>
    <circle id="Ellipse_215" data-name="Ellipse 215" cx="3.919" cy="3.919" r="3.919" transform="translate(12.082 48.496)" fill="#fdf0ff"/>
    <path id="Path_951" data-name="Path 951" d="M330,471.355l1.294-3.231a14.532,14.532,0,0,1,.16-9.061h0l.247-.2c2.156-1.776,4.048-1.452,5.8.72h0a4.855,4.855,0,0,0,.983.926c.774.543,2,3.5.381,5.226l-1.3,7.571C337.712,477.481,334.678,475.908,330,471.355Z" transform="translate(-319.401 -399.953)" fill="#b212ca"/>
    <path id="Path_952" data-name="Path 952" d="M368.4,543.859a1.435,1.435,0,0,0-1.85-1.19l-2.1-2.517-1.841.9,3.016,3.514a1.442,1.442,0,0,0,2.776-.709Z" transform="translate(-346.315 -467.995)" fill="#fdf0ff"/>
    <path id="Path_953" data-name="Path 953" d="M345.455,491.177,340.2,483.3l1.521-5.715a2.163,2.163,0,1,1,3.892,1.888l-1.821,3.761,4.27,6.124Z" transform="translate(-327.814 -415.346)" fill="#f197ff"/>
    <circle id="Ellipse_216" data-name="Ellipse 216" cx="3.759" cy="3.759" r="3.759" transform="translate(5.257 44.038)" fill="#c4a5c8"/>
    <path id="Path_954" data-name="Path 954" d="M294.392,401.886a3.76,3.76,0,0,0,5.805-1.974,3.76,3.76,0,1,1-7.333-1.542A3.758,3.758,0,0,0,294.392,401.886Z" transform="translate(-288.618 -350.976)" fill="#c4a5c8"/>
    <path id="Path_955" data-name="Path 955" d="M338.273,404.518a6.889,6.889,0,0,0-1.754-2.38,1.823,1.823,0,0,0-2.411-.219,4.473,4.473,0,1,0,2.652,3.578C337.406,405.406,337.628,404.608,338.273,404.518Z" transform="translate(-317.664 -353.603)" fill="#c4a5c8"/>
    <path id="Path_956" data-name="Path 956" d="M306.4,771.349H189.639c-.211,0-.383-.078-.383-.175s.171-.175.383-.175H306.4c.211,0,.383.078.383.175S306.608,771.349,306.4,771.349Z" transform="translate(-203.235 -658.526)" fill="#cbcbcb"/>
    <path id="Path_957" data-name="Path 957" d="M890.553,174.373h-.163v-4.459a2.581,2.581,0,0,0-2.581-2.581h-9.448a2.581,2.581,0,0,0-2.581,2.581v24.464a2.581,2.581,0,0,0,2.581,2.581h9.448a2.581,2.581,0,0,0,2.581-2.581V177.548h.163Z" transform="translate(-775.395 -160.289)" fill="#e5e5e5"/>
    <path id="Path_958" data-name="Path 958" d="M890.662,171.178h-1.233a.916.916,0,0,1-.848,1.262h-5.412a.916.916,0,0,1-.848-1.262h-1.152a1.927,1.927,0,0,0-1.927,1.927v24.428a1.927,1.927,0,0,0,1.927,1.927h9.493a1.927,1.927,0,0,0,1.927-1.927h0V173.105A1.927,1.927,0,0,0,890.662,171.178Z" transform="translate(-778.252 -163.462)" fill="#fff"/>
    <rect id="Rectangle_383" data-name="Rectangle 383" width="5.886" height="0.466" transform="translate(106.818 16.672)" fill="#e5e5e5"/>
    <rect id="Rectangle_384" data-name="Rectangle 384" width="5.886" height="0.466" transform="translate(106.818 18.149)" fill="#e5e5e5"/>
    <rect id="Rectangle_385" data-name="Rectangle 385" width="5.886" height="0.466" transform="translate(106.818 19.626)" fill="#e5e5e5"/>
    <rect id="Rectangle_386" data-name="Rectangle 386" width="2.843" height="2.843" transform="translate(102.838 16.96)" fill="#e5e5e5"/>
    <circle id="Ellipse_217" data-name="Ellipse 217" cx="1.237" cy="1.237" r="1.237" transform="translate(103.545 24.568)" fill="#b212ca"/>
    <circle id="Ellipse_218" data-name="Ellipse 218" cx="1.011" cy="1.011" r="1.011" transform="translate(107.071 24.794)" fill="#b212ca"/>
    <circle id="Ellipse_219" data-name="Ellipse 219" cx="0.615" cy="0.615" r="0.615" transform="translate(110.767 25.19)" fill="#b212ca"/>
    <path id="Path_959" data-name="Path 959" d="M601.8,162.33H580.11a1.941,1.941,0,0,1-1.939-1.939V128.939A1.941,1.941,0,0,1,580.11,127H601.8a1.941,1.941,0,0,1,1.939,1.939v31.453A1.941,1.941,0,0,1,601.8,162.33Z" transform="translate(-529.764 -127)" fill="#e5e5e5"/>
    <path id="Path_960" data-name="Path 960" d="M607.994,166.939H586.229a.6.6,0,0,1-.6-.6V134.68a.6.6,0,0,1,.6-.6h21.765a.6.6,0,0,1,.6.6v31.661a.6.6,0,0,1-.6.6Z" transform="translate(-535.921 -132.846)" fill="#fff"/>
    <circle id="Ellipse_220" data-name="Ellipse 220" cx="0.165" cy="0.165" r="0.165" transform="translate(60.943 0.429)" fill="#fff"/>
    <rect id="Rectangle_387" data-name="Rectangle 387" width="12.105" height="0.696" transform="translate(58.106 10.947)" fill="#e5e5e5"/>
    <rect id="Rectangle_388" data-name="Rectangle 388" width="12.105" height="0.696" transform="translate(58.106 13.149)" fill="#e5e5e5"/>
    <rect id="Rectangle_389" data-name="Rectangle 389" width="12.105" height="0.696" transform="translate(58.106 15.352)" fill="#e5e5e5"/>
    <rect id="Rectangle_390" data-name="Rectangle 390" width="4.241" height="4.241" transform="translate(52.17 11.377)" fill="#e5e5e5"/>
    <circle id="Ellipse_221" data-name="Ellipse 221" cx="1.685" cy="1.685" r="1.685" transform="translate(55.436 21.013)" fill="#461aa3"/>
    <circle id="Ellipse_222" data-name="Ellipse 222" cx="1.377" cy="1.377" r="1.377" transform="translate(60.237 21.321)" fill="#461aa3"/>
    <circle id="Ellipse_223" data-name="Ellipse 223" cx="0.838" cy="0.838" r="0.838" transform="translate(65.27 21.861)" fill="#461aa3"/>
    <path id="Path_961" data-name="Path 961" d="M638.854,345.953h-63.99a1.761,1.761,0,0,0-1.761,1.761v35.654a1.761,1.761,0,0,0,1.761,1.761h63.99a1.761,1.761,0,0,0,1.761-1.761V347.714a1.761,1.761,0,0,0-1.761-1.761Z" transform="translate(-525.581 -307.713)" fill="#3f3d56"/>
    <rect id="Rectangle_391" data-name="Rectangle 391" width="62.789" height="35.42" transform="translate(49.884 41.353)" fill="#fff"/>
    <circle id="Ellipse_224" data-name="Ellipse 224" cx="0.644" cy="0.644" r="0.644" transform="translate(80.581 39.099)" fill="#fff"/>
    <path id="Path_962" data-name="Path 962" d="M629.7,560.392h-6.128v-.442a.088.088,0,0,0-.088-.088h-2.1a.088.088,0,0,0-.088.088v.442h-1.313v-.442a.088.088,0,0,0-.088-.088h-2.1a.088.088,0,0,0-.088.088h0v.442h-1.313v-.442a.088.088,0,0,0-.088-.088h-2.1a.088.088,0,0,0-.088.088h0v.442H612.8v-.442a.088.088,0,0,0-.088-.088h-2.1a.088.088,0,0,0-.088.088v.442h-1.313v-.442a.088.088,0,0,0-.088-.088h-2.1a.088.088,0,0,0-.088.088h0v.442h-1.313v-.442a.088.088,0,0,0-.088-.088h-2.1a.088.088,0,0,0-.088.088h0v.442h-1.313v-.442a.088.088,0,0,0-.088-.088H585.49a.088.088,0,0,0-.088.088h0v.442H584.09v-.442a.088.088,0,0,0-.088-.088h-2.1a.088.088,0,0,0-.088.088h0v.442H580.5v-.442a.088.088,0,0,0-.088-.088h-2.1a.088.088,0,0,0-.088.088h0v.442h-1.313v-.442a.088.088,0,0,0-.088-.088h-2.1a.088.088,0,0,0-.087.088h0v.442h-1.313v-.442a.088.088,0,0,0-.088-.088h-2.1a.088.088,0,0,0-.088.088h0v.442h-1.313v-.442a.088.088,0,0,0-.088-.088h-2.1a.088.088,0,0,0-.088.087v.442h-1.313v-.442a.088.088,0,0,0-.088-.088h-2.1a.088.088,0,0,0-.088.088h0v.442h-4.027a2.1,2.1,0,0,0-2.1,2.1v.95a2.1,2.1,0,0,0,2.1,2.1H629.7a2.1,2.1,0,0,0,2.1-2.1v-.95a2.1,2.1,0,0,0-2.1-2.1Z" transform="translate(-512.901 -484.264)" fill="#3f3d56"/>
    <rect id="Rectangle_392" data-name="Rectangle 392" width="20.305" height="0.754" transform="translate(74.97 44.725)" fill="#cbcbcb"/>
    <rect id="Rectangle_393" data-name="Rectangle 393" width="20.305" height="0.754" transform="translate(74.97 47.114)" fill="#cbcbcb"/>
    <rect id="Rectangle_394" data-name="Rectangle 394" width="20.305" height="0.754" transform="translate(74.97 49.504)" fill="#cbcbcb"/>
    <rect id="Rectangle_395" data-name="Rectangle 395" width="4.6" height="4.6" transform="translate(68.531 45.191)" fill="#cbcbcb"/>
    <circle id="Ellipse_225" data-name="Ellipse 225" cx="8.051" cy="8.051" r="8.051" transform="translate(73.179 54.073)" fill="#461aa3"/>
    <path id="Path_963" data-name="Path 963" d="M580.717,330.339h-1.688l2.987,6.071,3-6.065H583.33v-2.524h-2.613Z" transform="translate(-500.794 -270.567)" fill="#fff"/>
    <path id="Path_964" data-name="Path 964" d="M514.069,300.523a7.647,7.647,0,0,1,4.454-2.56l-.771-.648.825-.071,1.055.887-.887,1.055-.825.071.594-.707a7.1,7.1,0,0,0,1.638,14.051l.021.575a7.672,7.672,0,0,1-6.1-12.654Z" transform="translate(-475.336 -267.511)" fill="#f099ff"/>
    <path id="Path_965" data-name="Path 965" d="M982.363,305.785a7.672,7.672,0,0,1-7.943,7.391l.021-.575a7.1,7.1,0,0,0,1.638-14.051l.594.707-.825-.071-.887-1.055,1.055-.887.825.071-.771.648a7.671,7.671,0,0,1,6.292,7.823Z" transform="translate(-856.808 -267.51)" fill="#f197ff"/>
  </g>
</svg>
