<svg xmlns="http://www.w3.org/2000/svg" width="110.004" height="77.579" viewBox="0 0 110.004 77.579">
  <g id="add_code" data-name="add code" transform="translate(-6 -2.896)">
    <path id="Path_1004" data-name="Path 1004" d="M854.511,181.119l-30.143-2.345a1.772,1.772,0,0,1-1.628-1.9l1.307-14.646a1.772,1.772,0,0,1,1.9-1.628l30.144,2.345a1.772,1.772,0,0,1,1.628,1.9l-1.307,14.646A1.772,1.772,0,0,1,854.511,181.119Z" transform="translate(-746.42 -157.696)" fill="#e6e6e6"/>
    <path id="Path_1005" data-name="Path 1005" d="M859.187,205.055q-.343,0-.689-.027l-19.481-1.515a2.975,2.975,0,0,1-2.735-3.2l.444-5.71a2.979,2.979,0,0,1,3.2-2.736l25.191,1.96a2.979,2.979,0,0,1,2.735,3.2,8.7,8.7,0,0,1-8.662,8.028Z" transform="translate(-758.216 -184.941)" fill="#fff"/>
    <path id="Path_1006" data-name="Path 1006" d="M886.054,224.114l-24.695-1.921a.393.393,0,1,1,.061-.784l24.695,1.921a.393.393,0,0,1-.061.784Z" transform="translate(-779.759 -210.686)" fill="#e6e6e6"/>
    <path id="Path_1007" data-name="Path 1007" d="M874.982,235.356l-14.561-1.133a.393.393,0,1,1,.061-.784l14.561,1.133a.393.393,0,0,1-.061.784Z" transform="translate(-778.94 -221.168)" fill="#e6e6e6"/>
    <path id="Path_1008" data-name="Path 1008" d="M877.375,247.645l-17.889-1.392a.393.393,0,0,1,.061-.784l17.889,1.392a.393.393,0,1,1-.061.784Z" transform="translate(-778.126 -231.65)" fill="#e6e6e6"/>
    <path id="Path_1009" data-name="Path 1009" d="M838.836,335.619l-30.144-2.345a1.772,1.772,0,0,1-1.628-1.9l1.307-14.646a1.772,1.772,0,0,1,1.9-1.628l30.144,2.345a1.772,1.772,0,0,1,1.628,1.9l-1.307,14.646A1.773,1.773,0,0,1,838.836,335.619Z" transform="translate(-732.762 -292.316)" fill="#e6e6e6"/>
    <path id="Path_1010" data-name="Path 1010" d="M843.5,359.554q-.338,0-.681-.027l-19.481-1.515a2.975,2.975,0,0,1-2.735-3.2l.444-5.71a2.975,2.975,0,0,1,3.2-2.735l25.191,1.96a2.975,2.975,0,0,1,2.735,3.2A8.715,8.715,0,0,1,843.5,359.554Z" transform="translate(-744.558 -319.559)" fill="#fff"/>
    <path id="Path_1011" data-name="Path 1011" d="M870.376,378.614l-24.694-1.921a.393.393,0,1,1,.061-.784l24.695,1.921a.393.393,0,1,1-.061.784Z" transform="translate(-766.098 -345.305)" fill="#e6e6e6"/>
    <path id="Path_1012" data-name="Path 1012" d="M859.308,389.856l-14.561-1.133a.393.393,0,0,1,.061-.784l14.561,1.133a.393.393,0,0,1-.061.784Z" transform="translate(-765.283 -355.787)" fill="#e6e6e6"/>
    <path id="Path_1013" data-name="Path 1013" d="M861.7,402.146l-17.889-1.392a.393.393,0,0,1,.061-.784l17.889,1.392a.393.393,0,1,1-.061.784Z" transform="translate(-764.468 -366.27)" fill="#e6e6e6"/>
    <path id="Path_1014" data-name="Path 1014" d="M454.629,357.474A15.013,15.013,0,0,1,482.1,345.352l-.49.216a14.478,14.478,0,1,0-26.491,11.69Z" transform="translate(-404.382 -320.491)" fill="#e6e6e6"/>
    <path id="Path_1015" data-name="Path 1015" d="M969.947,678.537c2.947-1.4,5.142-4.206,4.8-7.293a15.757,15.757,0,0,1-9.959,3.308c-1.447-.011-3.068-.158-4.12.654a2.768,2.768,0,0,0-.987,2.107,8.706,8.706,0,0,0,.349,2.408l-.059.189C963.432,680.129,967,679.933,969.947,678.537Z" transform="translate(-865.74 -602.636)" fill="#f7c2ff"/>
    <path id="Path_1016" data-name="Path 1016" d="M977.2,670.925a11.437,11.437,0,0,1-5.571,5.162,5.894,5.894,0,0,1-1.7.5,3.842,3.842,0,0,1-1.768-.231,8.105,8.105,0,0,0-1.626-.517,2.081,2.081,0,0,0-1.572.424,4.251,4.251,0,0,0-1.118,1.531,4.179,4.179,0,0,1-1.243,1.7c-.075.051.029.159.1.107,1.069-.739,1.224-2.076,2.073-2.971a2,2,0,0,1,1.607-.672,6.283,6.283,0,0,1,1.659.5,4.123,4.123,0,0,0,1.724.283,5.528,5.528,0,0,0,1.72-.437,11.87,11.87,0,0,0,3.255-2.025,11.1,11.1,0,0,0,2.6-3.3C977.39,670.9,977.244,670.849,977.2,670.925Z" transform="translate(-868.271 -602.325)" fill="#fff"/>
    <path id="Path_1017" data-name="Path 1017" d="M1039.2,708.106a2.307,2.307,0,0,0,2.594.659c.086-.036.016-.162-.07-.126a2.136,2.136,0,0,1-2.412-.618C1039.255,707.948,1039.144,708.033,1039.2,708.106Z" transform="translate(-935.018 -634.657)" fill="#fff"/>
    <path id="Path_1018" data-name="Path 1018" d="M1006.965,698.912a3.1,3.1,0,0,1,1.334-2.163c.074-.052-.029-.159-.1-.107a3.226,3.226,0,0,0-1.383,2.254c-.011.086.142.1.152.016Z" transform="translate(-906.81 -624.754)" fill="#fff"/>
    <path id="Path_1019" data-name="Path 1019" d="M1060.292,682.467a1.049,1.049,0,0,1-.4-.938c.012-.086-.141-.1-.152-.016a1.175,1.175,0,0,0,.445,1.038.087.087,0,0,0,.108.012.062.062,0,0,0,0-.1Z" transform="translate(-952.918 -611.534)" fill="#fff"/>
    <path id="Path_1020" data-name="Path 1020" d="M949.4,620.513c-.009.053-.018.107-.028.16a11.652,11.652,0,0,1-.575,2.1c-.019.053-.039.106-.059.158a12.634,12.634,0,0,1-2.9,4.374,13.278,13.278,0,0,1-1.657,1.386,8.634,8.634,0,0,0-2.289,1.932,2.089,2.089,0,0,0-.148.253l2.341,4.737.032.027.084.192.1-.06.056-.035.037-.022.011-.008.032-.02q.279-.176.556-.356l0,0a19.567,19.567,0,0,0,3.81-3.153c.033-.036.066-.072.1-.111a11.8,11.8,0,0,0,1.291-1.736,10.175,10.175,0,0,0,.549-1.039,8.392,8.392,0,0,0,.73-2.92,7.647,7.647,0,0,0-1.959-5.731C949.481,620.594,949.444,620.554,949.4,620.513Z" transform="translate(-850.12 -558.433)" fill="#f7c2ff"/>
    <path id="Path_1021" data-name="Path 1021" d="M962.921,620.185a10.668,10.668,0,0,1-.677,7.383,4.633,4.633,0,0,1-.934,1.34,3.127,3.127,0,0,1-1.48.757,7.037,7.037,0,0,0-1.567.438,1.652,1.652,0,0,0-.89,1.207,4.357,4.357,0,0,0,.2,1.9,4.281,4.281,0,0,1,.221,2.113c-.021.084.129.119.15.035.3-1.2-.489-2.42-.459-3.638a1.636,1.636,0,0,1,.749-1.437,5.419,5.419,0,0,1,1.579-.473,3.388,3.388,0,0,0,1.482-.69,4.325,4.325,0,0,0,.992-1.3,10.119,10.119,0,0,0,1.066-3.472,11.174,11.174,0,0,0-.288-4.2C963.042,620.063,962.9,620.1,962.921,620.185Z" transform="translate(-863.697 -558.073)" fill="#fff"/>
    <path id="Path_1022" data-name="Path 1022" d="M998.247,666.246a1.994,1.994,0,0,0,2.389-.839c.04-.077-.1-.146-.138-.069a1.848,1.848,0,0,1-2.224.776C998.179,666.084,998.153,666.216,998.247,666.246Z" transform="translate(-899.296 -597.46)" fill="#fff"/>
    <path id="Path_1023" data-name="Path 1023" d="M974.188,676.326a3.294,3.294,0,0,1-.465-2.555c.021-.084-.13-.119-.15-.035a3.429,3.429,0,0,0,.49,2.658C974.113,676.473,974.238,676.4,974.188,676.326Z" transform="translate(-877.774 -604.766)" fill="#fff"/>
    <path id="Path_1024" data-name="Path 1024" d="M996.688,638.53a1.3,1.3,0,0,1-.938-.577c-.049-.079-.174-.01-.125.068a1.45,1.45,0,0,0,1.036.641c.042,0,.08-.01.089-.048A.075.075,0,0,0,996.688,638.53Z" transform="translate(-897.053 -573.599)" fill="#fff"/>
    <path id="Path_1025" data-name="Path 1025" d="M986.277,370.65l-1.791-9.535-3.517-4.628-2.606,1.7c.368,2,3.153,5.725,3.153,5.725l2.469,7.374c-.01.038-.019.077-.026.117a1.375,1.375,0,1,0,2.316-.757Z" transform="translate(-882.022 -328.383)" fill="#e7c8ec"/>
    <path id="Path_1027" data-name="Path 1027" d="M772.926,556.955h-1.963l-.934-7.571h2.9Z" transform="translate(-686.94 -478.689)" fill="#e7c8ec"/>
    <path id="Path_1028" data-name="Path 1028" d="M858.919,735.383h-.552l-2.157-.877-1.156.877h0a2.464,2.464,0,0,0-2.464,2.463v.08h6.329Z" transform="translate(-772.433 -657.758)" fill="#b212ca"/>
    <path id="Path_1029" data-name="Path 1029" d="M840.609,556.955h-1.963l-.934-7.571h2.9Z" transform="translate(-745.914 -478.689)" fill="#e7c8ec"/>
    <path id="Path_1073" data-name="Path 1073" d="M176.433,160.067v2.241l2.752-.295-.337-2.685Z" transform="translate(-84.629 -141.528)" fill="#e7c8ec"/>
    <path id="Path_1030" data-name="Path 1030" d="M926.6,735.383h-.553l-2.157-.877-1.156.877h0a2.464,2.464,0,0,0-2.463,2.463v.08H926.6Z" transform="translate(-831.407 -657.758)" fill="#b212ca"/>
    <path id="Path_1031" data-name="Path 1031" d="M878.638,487.446a20.835,20.835,0,0,1-.344,5.386c-.573,2.636-.573,10.059-.573,10.059l-1.261,14.465-3.782-.344-1.031-24.181-3.667,8.137-.8,4.011.458,11.8-3.9-.115-1.375-16.617,2.865-13.408Z" transform="translate(-780.95 -441.791)" fill="#461aa3"/>
    <path id="Path_1032" data-name="Path 1032" d="M892.8,318.862l.02-.029c1.091-1.527-.072-5.024-.319-5.556l1.015-4.192,0-.02,1.125-6.675a5.849,5.849,0,0,0-1.66-5.668l-1.541-1.453-1.872-2.77h-3.019l-1.035,1.955a4.4,4.4,0,0,0-3.4,4.493l.235,5.129-.919,6.386v1.156l-1.942,4.235a7.286,7.286,0,0,0-1.093,1.8c0,.052.038.1.121.158.647.438,4.221,1.331,5.8.7,1.685-.674,8.383.337,8.45.347Z" transform="translate(-794.918 -272.629)" fill="#b212ca"/>
    <path id="Path_1033" data-name="Path 1033" d="M786.324,759.691a.153.153,0,0,0,.152.153h36.069a.153.153,0,0,0,0-.306H786.477a.153.153,0,0,0-.153.152Z" transform="translate(-706.694 -679.369)" fill="#ccc"/>
    <circle id="Ellipse_233" data-name="Ellipse 233" cx="3.999" cy="3.999" r="3.999" transform="translate(88.758 10.979)" fill="#e7c8ec"/>
    <path id="Path_1034" data-name="Path 1034" d="M913.257,223.715a5.5,5.5,0,0,0,1.846-.177,6.565,6.565,0,0,0,2.3-1.776h0a5.341,5.341,0,0,0,.519-1.657,4.861,4.861,0,0,0-.95-3.836,1.535,1.535,0,0,0-.634-.513c-.022-.008-.046-.015-.069-.021a1.9,1.9,0,0,1-.957-.559,1.558,1.558,0,0,0-.161-.157,2.334,2.334,0,0,0-.986-.464,4.128,4.128,0,0,0-2.477.522,2.619,2.619,0,0,1-1.581.089.148.148,0,0,0-.138.051,1.048,1.048,0,0,1-.7.3c-.162.011-.326.24-.524.538-.045.068-.1.147-.135.195l-.008-.09-.089.1a1.272,1.272,0,0,0,.627,2.056,2.48,2.48,0,0,0,.5.067c.1.007.208.013.31.028a1.917,1.917,0,0,1,1.456,1.207.5.5,0,0,0,.763.224.829.829,0,0,1,.751-.157.55.55,0,0,1,.25.269.717.717,0,0,0,.28.31c.416.2.469,1.139.342,1.925-.123.758-.39,1.31-.65,1.344-.2.026-.222.041-.236.077l-.012.032.023.029A.819.819,0,0,0,913.257,223.715Z" transform="translate(-820.884 -204.675)" fill="#c4a5c8"/>
    <circle id="Ellipse_234" data-name="Ellipse 234" cx="7.951" cy="7.951" r="7.951" transform="translate(54.476 11.75)" fill="#461aa3"/>
    <path id="Path_1072" data-name="Path 1072" d="M175.281,159.678l-.17,2.284,2.746-.332-.52-2.748Z" transform="translate(-146.578 -138.437)" fill="#e7c8ec"/>
    <path id="Path_1035" data-name="Path 1035" d="M849.605,363.883l-2.623-1.677c-1.67,1.155-3.927,5.225-3.927,5.225l-5.712,5.277a1.374,1.374,0,1,0,1.523,1.827l7.961-5.546Z" transform="translate(-758.153 -333.366)" fill="#e7c8ec"/>
    <path id="Path_1036" data-name="Path 1036" d="M909.773,323.923l1.747-4.192-.632-2.317a2.528,2.528,0,0,0-1.961-1.809h0a2.522,2.522,0,0,0-2.9,1.855c-.478,1.878-.846,4.32.12,5.286l.01.01Z" transform="translate(-818.571 -292.724)" fill="#b212ca"/>
    <path id="Path_1037" data-name="Path 1037" d="M111,683.677c-3.419-1.755-5.9-5.147-5.381-8.771a18.571,18.571,0,0,0,11.608,4.268c1.705.041,3.62-.072,4.829.924a3.262,3.262,0,0,1,1.084,2.519,10.259,10.259,0,0,1-.5,2.823l.062.225C118.615,685.8,114.419,685.432,111,683.677Z" transform="translate(-99.523 -605.827)" fill="#f7c2ff"/>
    <path id="Path_1038" data-name="Path 1038" d="M105.525,674.535a13.48,13.48,0,0,0,6.371,6.29,6.95,6.95,0,0,0,1.983.652,4.528,4.528,0,0,0,2.091-.206,9.554,9.554,0,0,1,1.935-.548,2.453,2.453,0,0,1,1.836.558,5.011,5.011,0,0,1,1.26,1.845,4.924,4.924,0,0,0,1.4,2.05c.086.063-.04.186-.126.122-1.232-.911-1.364-2.491-2.332-3.578a2.357,2.357,0,0,0-1.868-.852,7.4,7.4,0,0,0-1.973.524,4.861,4.861,0,0,1-2.042.269,6.521,6.521,0,0,1-2.01-.579,13.99,13.99,0,0,1-3.758-2.507,13.078,13.078,0,0,1-2.941-3.987C105.308,674.5,105.482,674.444,105.525,674.535Z" transform="translate(-99.345 -605.463)" fill="#fff"/>
    <path id="Path_1039" data-name="Path 1039" d="M127.658,719.716a2.72,2.72,0,0,1-3.081.68c-.1-.046-.012-.191.087-.145a2.518,2.518,0,0,0,2.865-.638C127.6,719.529,127.731,719.632,127.658,719.716Z" transform="translate(-116.064 -644.754)" fill="#fff"/>
    <path id="Path_1040" data-name="Path 1040" d="M175.217,709.747a3.657,3.657,0,0,0-1.491-2.6c-.086-.064.041-.186.126-.122a3.8,3.8,0,0,1,1.545,2.707c.009.1-.171.115-.18.014Z" transform="translate(-158.901 -633.799)" fill="#fff"/>
    <path id="Path_1041" data-name="Path 1041" d="M120.185,688.724a1.236,1.236,0,0,0,.512-1.09c-.011-.1.17-.115.18-.014a1.385,1.385,0,0,1-.563,1.206.1.1,0,0,1-.127.01.074.074,0,0,1,0-.113Z" transform="translate(-112.253 -616.845)" fill="#fff"/>
    <path id="Path_1042" data-name="Path 1042" d="M178.923,617.966c.009.063.017.126.027.19a13.733,13.733,0,0,0,.6,2.491c.02.063.042.126.064.189a14.889,14.889,0,0,0,3.25,5.26,15.648,15.648,0,0,0,1.9,1.695,10.178,10.178,0,0,1,2.624,2.361,2.456,2.456,0,0,1,.165.3l-2.935,5.493-.039.031-.106.223-.114-.075-.065-.043-.042-.028-.013-.009-.038-.024q-.322-.218-.642-.44l0,0a23.06,23.06,0,0,1-4.371-3.857c-.037-.044-.076-.088-.111-.134a13.928,13.928,0,0,1-1.455-2.093,11.98,11.98,0,0,1-.607-1.245,9.887,9.887,0,0,1-.751-3.467,9.013,9.013,0,0,1,2.521-6.678C178.829,618.059,178.875,618.013,178.923,617.966Z" transform="translate(-161.131 -556.214)" fill="#f7c2ff"/>
    <path id="Path_1043" data-name="Path 1043" d="M192.673,617.578a12.573,12.573,0,0,0,.521,8.722,5.46,5.46,0,0,0,1.051,1.613,3.685,3.685,0,0,0,1.715.947,8.3,8.3,0,0,1,1.83.575,1.947,1.947,0,0,1,1,1.455,5.136,5.136,0,0,1-.306,2.232,5.045,5.045,0,0,0-.339,2.481c.021.1-.157.135-.178.036-.309-1.429.667-2.833.676-4.269a1.928,1.928,0,0,0-.828-1.72,6.387,6.387,0,0,0-1.842-.616,3.994,3.994,0,0,1-1.721-.868,5.1,5.1,0,0,1-1.12-1.566,11.924,11.924,0,0,1-1.126-4.13,13.167,13.167,0,0,1,.5-4.94C192.535,617.429,192.7,617.477,192.673,617.578Z" transform="translate(-174.811 -555.785)" fill="#fff"/>
    <path id="Path_1044" data-name="Path 1044" d="M179.193,671.352a2.351,2.351,0,0,1-2.783-1.078c-.044-.092.121-.168.165-.076a2.178,2.178,0,0,0,2.591,1C179.279,671.165,179.305,671.321,179.193,671.352Z" transform="translate(-161.259 -601.689)" fill="#fff"/>
    <path id="Path_1045" data-name="Path 1045" d="M220.4,684.686a3.883,3.883,0,0,0,.644-2.992c-.021-.1.157-.135.178-.036a4.042,4.042,0,0,1-.677,3.113C220.486,684.862,220.341,684.777,220.4,684.686Z" transform="translate(-199.584 -611.659)" fill="#fff"/>
    <path id="Path_1046" data-name="Path 1046" d="M192.43,639.341a1.526,1.526,0,0,0,1.126-.645c.061-.092.206-.006.145.085a1.71,1.71,0,0,1-1.244.716c-.049,0-.094-.014-.1-.06A.089.089,0,0,1,192.43,639.341Z" transform="translate(-175.157 -574.243)" fill="#fff"/>
    <path id="Path_1047" data-name="Path 1047" d="M172.025,265.948l.258,2.389-.152,3.133,6.939-.824.652-4.7-.831.008Z" transform="translate(-143.889 -231.726)" fill="#e7c8ec"/>
    <path id="Path_1048" data-name="Path 1048" d="M144.057,563.384h1.517l.722-5.851h-2.239Z" transform="translate(-119.52 -485.789)" fill="#e7c8ec"/>
    <path id="Path_1049" data-name="Path 1049" d="M243.485,732.033l2.424-.145v1.038l2.3,1.591a.649.649,0,0,1-.369,1.182h-2.885l-.5-1.027-.194,1.027H243.18Z" transform="translate(-219.443 -655.476)" fill="#b212ca"/>
    <path id="Path_1050" data-name="Path 1050" d="M210.278,563.384H211.8l.722-5.851h-2.239Z" transform="translate(-177.219 -485.789)" fill="#e7c8ec"/>
    <path id="Path_1051" data-name="Path 1051" d="M309.706,732.033l2.424-.145v1.038l2.3,1.591a.649.649,0,0,1-.369,1.182H311.18l-.5-1.027-.194,1.027H309.4Z" transform="translate(-277.142 -655.476)" fill="#b212ca"/>
    <path id="Path_1052" data-name="Path 1052" d="M241.6,474h.016l.292-9.514a2.488,2.488,0,0,1,.033-2.351l.042-.076-.108-.5a3.2,3.2,0,0,1,.183-1.925l.272-8.875a12.274,12.274,0,0,1,3.662-10.412h6.942l1.49,5.12a102.645,102.645,0,0,1-.757,28.015l.043.022a.36.36,0,0,1,.147.475c-.072.209-.255.336-.409.283l-3.666-.128a.36.36,0,0,1-.147-.475c.072-.209.255-.336.409-.283l.249.126-.532-9.181.059-1.677-.122-1.9-.562-8.557-2.127,10.523-2.173,11.4a.4.4,0,0,1-.27.7H241.6a.4.4,0,0,1,0-.8Z" transform="translate(-217.717 -401.449)" fill="#461aa3"/>
    <circle id="Ellipse_235" data-name="Ellipse 235" cx="3.723" cy="3.723" r="3.723" transform="translate(25.625 14.551)" fill="#e7c8ec"/>
    <path id="Path_1053" data-name="Path 1053" d="M145.992,259.816a12.123,12.123,0,0,1,2.127-3.319,8.192,8.192,0,0,0-1.244,3.972,6.275,6.275,0,0,0,.85.444,8.141,8.141,0,0,0,2.784.625,12.147,12.147,0,0,1,2.608-4.637,8.212,8.212,0,0,0-1.251,4.617,12.856,12.856,0,0,0,3.132-.671,9.222,9.222,0,0,0,4.045-2.518,8.628,8.628,0,0,0,1.879-4.777,25.673,25.673,0,0,0-.161-5.2c-.081-.824.712-1.912.47-2.6a5.464,5.464,0,0,1-.9-1.587,1.85,1.85,0,0,1,.274-1.736,1.885,1.885,0,0,1,.828-.513c.03-.038.062-.074.1-.111a7.7,7.7,0,0,1,2.127-1.591,3.179,3.179,0,0,0-1.136,1.43l1.491-.327a7.177,7.177,0,0,1,.524-.5,5.513,5.513,0,0,1,.671-.466,2.142,2.142,0,0,0-.579.827,2.466,2.466,0,0,0,1.61-.952,2.1,2.1,0,0,0-1.018-2.678,3.644,3.644,0,0,0-4.232.466,4.6,4.6,0,0,0-4.676-.23,6.838,6.838,0,0,0-2.439,2.122,9.542,9.542,0,0,1,1.1-.077,3.388,3.388,0,0,0-1.447.573,9.968,9.968,0,0,0-.524.917q-.156.31-.294.628a30.494,30.494,0,0,0-1.317,4.017,19.1,19.1,0,0,1-1.759,4.586,10.3,10.3,0,0,1-5.68,4.532A5.615,5.615,0,0,0,145.992,259.816Z" transform="translate(-132.96 -224.34)" fill="#c4a5c8"/>
    <path id="Path_1054" data-name="Path 1054" d="M264.462,316.565l-.723-.271-.911-1.473-3.246.265-.789,1.58-1.931,1.522.862,4.307,1.291,5.317,8.644-1.081-.009-4s1.562-3.162-.961-4.347Z" transform="translate(-231.364 -292.078)" fill="#b212ca"/>
    <path id="Path_1055" data-name="Path 1055" d="M342.888,376.96a1.237,1.237,0,0,1-1.672-.9l-9.638-5.832,1.762-2.033,8.92,6.372a1.244,1.244,0,0,1,.628,2.389Z" transform="translate(-296.466 -338.588)" fill="#e7c8ec"/>
    <path id="Path_1056" data-name="Path 1056" d="M306.005,348.484s-.461.463.7,1.225c.925.61,5.052,3.625,6.516,4.1a.972.972,0,0,0,.648,1l1.325-2.911c-.287-.665-.745-.511-.987-.361l-1.6-1.2-3.929-3.923-2.341,1.73Z" transform="translate(-274.105 -319.605)" fill="#b212ca"/>
    <path id="Path_1057" data-name="Path 1057" d="M270.63,245.149a5.185,5.185,0,0,0-.624,4.557" transform="translate(-242.583 -231.372)" fill="#fdf0ff"/>
    <path id="Path_1058" data-name="Path 1058" d="M129.876,759.691a.153.153,0,0,0,.153.153H166.1a.153.153,0,1,0,0-.306H130.029a.153.153,0,0,0-.153.153Z" transform="translate(-120.719 -679.569)" fill="#ccc"/>
    <path id="Path_3114" data-name="Path 3114" d="M235.038,420.654a.36.36,0,0,0-.22.458l5.025,14.483a.36.36,0,0,0,.458.22l29.239-10.259a.36.36,0,0,0,.22-.458l-5.025-14.483a.36.36,0,0,0-.458-.22Z" transform="translate(-212.139 -375.336)" fill="#e6e6e6"/>
    <path id="Path_1059" data-name="Path 1059" d="M256.64,462.734a2.786,2.786,0,0,1-2.625-1.854l-2.76-7.808a2.781,2.781,0,0,1,1.7-3.549l14.778-5.223a11.074,11.074,0,0,1,14.116,6.743,2.781,2.781,0,0,1-1.7,3.549l-.021-.061.021.061-22.586,7.983A2.771,2.771,0,0,1,256.64,462.734Z" transform="translate(-226.341 -404.345)" fill="#fff"/>
    <path id="Path_3117" data-name="Path 3117" d="M353.078,465.243l-13.232,4.643c-.186.065-.417-.109-.516-.39s-.027-.562.159-.627l13.232-4.643c.186-.065.418.109.516.39S353.265,465.178,353.078,465.243Z" transform="translate(-303.182 -422.245)" fill="#e6e6e6"/>
    <path id="Path_3118" data-name="Path 3118" d="M361.031,487.912,347.8,492.555c-.186.065-.418-.109-.516-.39s-.027-.562.159-.627l13.232-4.643c.186-.065.417.109.516.39S361.218,487.847,361.031,487.912Z" transform="translate(-310.111 -441.997)" fill="#e6e6e6"/>
    <path id="Path_3124" data-name="Path 3124" d="M364.949,583.573" transform="translate(-325.543 -526.247)" fill="#e6e6e6"/>
    <path id="Path_1060" data-name="Path 1060" d="M282.835,504.546a3.549,3.549,0,0,1,.2,1.248,3.455,3.455,0,0,1-.057.579,3.565,3.565,0,0,1-5.833,2.062q-.072-.062-.14-.127a3.564,3.564,0,1,1,5.827-3.761Z" transform="translate(-247.961 -455.319)" fill="#461aa3"/>
    <path id="Path_1062" data-name="Path 1062" d="M265.085,397.655a1.237,1.237,0,0,1-.608-1.8l-3.049-10.845,2.675-.28,2.156,10.748a1.244,1.244,0,0,1-1.174,2.173Z" transform="translate(-235.343 -352.994)" fill="#e7c8ec"/>
    <path id="Path_1063" data-name="Path 1063" d="M255.079,340.471s-.653.023-.33,1.37c.258,1.078,1.207,7.839,1.949,9.187a.4.4,0,0,0,.255.72l2.491-.767c.072-.461.036-.479-.267-.728l-.3-2.6-2.177-6.881-1.147-.327Z" transform="translate(-229.445 -314.405)" fill="#b212ca"/>
    <path id="Path_1066" data-name="Path 1066" d="M439.986,529.626l-3.127.13a.294.294,0,1,1-.024-.587l3.127-.13a.294.294,0,1,1,.024.587Z" transform="translate(-387.933 -478.731)" fill="#fff"/>
    <path id="Path_1069" data-name="Path 1069" d="M1026.592,278.451l-3.1-.407a.294.294,0,0,1,.076-.582l3.1.407a.294.294,0,0,1-.076.582Z" transform="translate(-921.119 -259.525)" fill="#fff"/>
    <path id="Path_1070" data-name="Path 1070" d="M582.889,357.51h-1.351v-1.351a1.222,1.222,0,0,0-2.445,0v1.351h-1.351a1.222,1.222,0,0,0,0,2.445h1.351v1.351a1.222,1.222,0,0,0,2.445,0v-1.351h1.351a1.222,1.222,0,0,0,0-2.445Z" transform="translate(-517.888 -339.031)" fill="#fff"/>
    <path id="Path_1071" data-name="Path 1071" d="M3.043,1.23H2.4V.584a.584.584,0,1,0-1.168,0V1.23H.584a.584.584,0,1,0,0,1.168H1.23v.646a.584.584,0,1,0,1.168,0V2.4h.646a.584.584,0,1,0,0-1.168Z" transform="translate(29.036 49.645) rotate(-30)" fill="#fff"/>
  </g>
</svg>
